<?xml version="1.0" standalone="no"?>
<!DOCTYPE svg PUBLIC "-//W3C//DTD SVG 1.1//EN" "http://www.w3.org/Graphics/SVG/1.1/DTD/svg11.dtd" >
<!--
2013-9-30: Created.
-->
<svg>
<metadata>
Created by iconfont
</metadata>
<defs>

<font id="iconfont" horiz-adv-x="1024" >
  <font-face
    font-family="iconfont"
    font-weight="500"
    font-stretch="normal"
    units-per-em="1024"
    ascent="896"
    descent="-128"
  />
    <missing-glyph />
    
    <glyph glyph-name="caise" unicode="&#58905;" d="M512.011737 383.988263m-500.274809 0a500.274809 500.274809 0 1 1 1000.549618 0 500.274809 500.274809 0 1 1-1000.549618 0ZM540.696788 319.646425a53.989868 53.989868 0 0 0-53.966393-53.989868h-206.170874a53.989868 53.989868 0 0 0-53.966394 53.989868V630.628063a53.94292 53.94292 0 0 0 53.966394 53.94292h206.170874a53.94292 53.94292 0 0 0 53.966393-53.94292v-310.981638zM669.05183 228.520918a53.966394 53.966394 0 0 0-53.966393-53.966394H408.914563a53.966394 53.966394 0 0 0-53.966393 53.966394V539.502556a53.966394 53.966394 0 0 0 53.966393 53.966394h206.170874a53.966394 53.966394 0 0 0 53.966393-53.966394v-310.981638zM797.406873 137.442358a53.989868 53.989868 0 0 0-53.966394-53.989867h-206.170874a53.989868 53.989868 0 0 0-53.966393 53.989867V448.423997a53.94292 53.94292 0 0 0 53.966393 53.94292h206.170874a53.94292 53.94292 0 0 0 53.966394-53.94292v-310.981639z"  horiz-adv-x="1024" />

    
    <glyph glyph-name="caizhi" unicode="&#58906;" d="M473.568124-127.929911c-124.845191 0-249.696223-0.005841-374.547255 0-73.476141 0-98.007126 24.747091-98.018807 98.900754-0.005841 61.934896-0.362124 123.869793 0.058407 185.810529 1.489381 219.996209 3.171506 439.998259 4.941241 660.000309C6.387197 864.406837 36.350043 895.403488 83.735729 895.689683c95.641638 0.584071 191.289116 0.175221 286.930753 0.122655 4.374692-0.005841 8.807792-0.116814 13.106555-0.846903 30.704616-5.239117 53.863034-41.702674 90.64783-21.873462 29.536474-13.451157 60.07171-25.085852 88.404998-40.721435a5300.310624 5300.310624 0 0 0 187.597787-108.374387c16.096999-9.759828 27.883553-26.534349 41.942143-39.786921 45.002676-42.415241 66.280385-100.34341 99.058454-150.748743 2.669205-4.100179 6.518233-8.393101 10.828677-10.303014 28.076296-12.458236 40.242497-35.891167 48.086571-63.920738 7.429384-26.534349 19.140009-51.900555 26.125499-78.522514 8.836995-33.689219 14.263016-68.266227 22.194701-102.212438 6.132746-26.242313 14.111157-52.052414 20.810452-78.172072 12.528324-48.822501-7.271685-85.80004-55.434185-99.952082-14.62514-4.298763-17.714876-11.395227-17.516291-24.805498 0.589912-40.149045 0.367965-80.309772 0.151858-120.464658-0.280354-52.309405-30.418421-82.792074-83.224287-82.926411-129.955813-0.332921-259.917467-0.105133-389.87912-0.110973z m0.589911 386.035933c-128.460591 0-256.921182 0.040885-385.381773-0.029204-28.566916-0.017522-33.759308-4.701772-33.846919-32.672936a47692.53349 47692.53349 0 0 1-0.023362-264.946318c0.075929-28.26904 5.636286-33.689219 33.140192-33.69506 256.921182-0.064248 513.842365-0.064248 770.763547-0.005841 28.380013 0.005841 33.403024 4.947082 33.443909 33.000015 0.116814 87.587298 0.087611 175.174595 0.023363 262.761893-0.017522 32.100546-3.387612 35.552406-34.92745 35.569928-127.736343 0.052566-255.466845 0.017522-383.191507 0.017523z m-413.498954 50.9602c23.053285 16.780362 48.769934 11.155757 63.138082 36.446035 85.654022 150.766265 173.083621 300.522088 259.794812 450.68676 17.784964 30.798068 8.749385 46.275951-27.060012 46.346039-86.769598 0.157699-173.545037 0.140177-260.314636 0-30.500191-0.046726-35.534884-5.233277-35.540724-35.558246-0.040885-156.770516-0.017522-313.546873-0.017522-470.317389v-27.603199z m664.141373 368.046544c-83.557207 47.998961-161.805209 93.165176-240.321883 137.864136-16.564256 9.426907-27.089216 0.49646-35.447273-13.976821-77.687293-134.52909-155.579011-268.947206-233.266304-403.476295-2.178585-3.767258-2.786019-8.439827-5.408498-16.786203l514.443958 296.375183z m218.232314-402.173816c-15.53045 57.519319-30.955767 115.062001-46.626393 172.540435-7.335933 26.908154-13.696467 30.605324-40.791524 23.362842-184.461325-49.295598-368.893447-98.70217-553.313887-148.137945-6.202835-1.658762-12.212926-4.018409-18.310628-6.045136l1.197345-4.129382h23.906029c181.04451 0 362.09486-0.473098 543.13937 0.397168 36.002141 0.169381 66.584102-6.868676 90.799688-37.987982z m-107.837041 246.477991c-17.522132 30.447625-33.011697 57.531-48.664802 84.515084-16.973105 29.267801-22.76709 30.932404-51.550113 14.373989a438598.620486 438598.620486 0 0 1-373.583537-215.206826c-5.18071-2.990444-9.882483-6.804428-14.812043-10.232925l1.72301-3.603719 486.887485 130.154397z m113.046955-367.8538c25.518065 11.073987 23.935232 49.219669 0 86.524288v-86.524288zM128.358758 91.131784c0.233628 35.780194 28.403376 63.640384 64.160207 63.453481 35.768512-0.186903 63.44764-28.274881 63.342508-64.26534-0.110974-35.897008-28.169748-63.60534-64.136844-63.319144-36.002141 0.286195-63.599499 28.222314-63.365871 64.131003z m94.076328-1.390089c-14.006024 10.548324-22.755409 21.926028-29.00497 20.687797-8.46319-1.676284-15.004786-13.030626-22.369922-20.232222 7.003012-6.728499 13.427794-17.878415 21.178417-18.883017 7.154871-0.928673 15.717352 9.023898 30.196475 18.427442z"  horiz-adv-x="1024" />

    
    <glyph glyph-name="danse" unicode="&#58907;" d="M512.011737 383.988263m-500.274809 0a500.274809 500.274809 0 1 1 1000.549618 0 500.274809 500.274809 0 1 1-1000.549618 0ZM540.696788 319.646425a53.989868 53.989868 0 0 0-53.966393-53.989868h-206.170874a53.989868 53.989868 0 0 0-53.966394 53.989868V630.628063a53.94292 53.94292 0 0 0 53.966394 53.94292h206.170874a53.94292 53.94292 0 0 0 53.966393-53.94292v-310.981638zM669.05183 228.520918a53.989868 53.989868 0 0 0-53.966393-53.989868H408.914563a53.989868 53.989868 0 0 0-53.966393 53.989868V539.502556a53.94292 53.94292 0 0 0 53.966393 53.94292h206.170874a53.94292 53.94292 0 0 0 53.966393-53.94292v-310.981638zM797.406873 137.442358a53.989868 53.989868 0 0 0-53.966394-53.989867h-206.170874a53.989868 53.989868 0 0 0-53.966393 53.989867V448.423997a53.94292 53.94292 0 0 0 53.966393 53.94292h206.170874a53.94292 53.94292 0 0 0 53.966394-53.94292v-310.981639z"  horiz-adv-x="1024" />

    
    <glyph glyph-name="daiqueren" unicode="&#58908;" d="M739.555247 17.067859c-8.534711 0-14.219425 2.843052-19.911084 8.53471l-48.35549 48.35549c-11.376373 11.376373-11.376373 28.444406 0 39.822169s28.444406 11.376373 39.822168 0L739.555247 85.334433l85.334606 85.334606c11.376373 11.376373 28.444406 11.376373 39.822169 0 11.376373-11.381929 11.376373-28.444406 0-39.822168l-105.245691-105.24569c-5.691659-5.69027-11.376373-8.533322-19.911084-8.533322z m0 480.711848H227.554552c-14.219425 0-28.444406-14.224981-28.444405-28.444406 0-14.224981 14.224981-28.445795 28.444405-28.445795H739.555247c14.219425 0 28.444406 14.220814 28.444406 28.445795 0 14.219425-14.224981 28.444406-28.444406 28.444406zM398.219599 327.109105H227.554552c-14.219425 0-28.444406-11.376373-28.444405-28.440239 0-14.224981 14.224981-28.444406 28.444405-28.444406h170.665047c17.068032 0 28.445795 14.219425 28.445795 28.444406 0 17.063866-11.377762 28.440239-28.445795 28.440239z m0-170.663657H227.554552c-14.219425 0-28.444406-11.376373-28.444405-28.444406 0-14.219425 14.224981-28.444406 28.444405-28.444406h170.665047c14.224981 0 28.445795 14.224981 28.445795 28.444406 0 17.066644-14.220814 28.444406-28.445795 28.444406zM739.555247 668.444753H227.554552c-14.219425 0-28.444406-14.219425-28.444405-28.444406 0-14.220814 14.224981-28.445795 28.444405-28.445795H739.555247c14.219425 0 28.444406 14.224981 28.444406 28.445795 0 14.224981-14.224981 28.444406-28.444406 28.444406z m0 0M910.220293 896H56.889506C42.664525 896 28.4451 881.780575 28.4451 867.555594v-967.111188c0-14.219425 14.219425-28.444406 28.444406-28.444406h426.666088c17.068032 0 28.444406 11.376373 28.444406 28.444406s-11.376373 28.444406-28.444406 28.444406H85.335301V839.109799h796.440586V412.4451c0-17.068032 11.381929-28.445795 28.444406-28.445794 17.068032 0 28.444406 11.377762 28.444406 28.445794V867.555594c0 14.224981-14.219425 28.444406-28.444406 28.444406z m0 0M767.999653 270.22446c93.863762 0 170.665046-76.801285 170.665046-170.670602 0-93.863762-76.801285-170.665046-170.665046-170.665046-93.869317 0-170.665046 76.801285-170.665047 170.665046 0.001389 93.870706 76.797118 170.670602 170.665047 170.670602m0 56.884645c-125.156775 0-227.555247-102.398472-227.555247-227.555247 0-125.151219 102.398472-227.555247 227.555247-227.555247s227.555247 102.402639 227.555247 227.555247c0 125.158164-102.397083 227.555247-227.555247 227.555247z m0 0"  horiz-adv-x="1024" />

    
    <glyph glyph-name="guanbi" unicode="&#58909;" d="M512 880.32256c-274.5856 0-497.1776-222.59712-497.1776-497.18272 0-274.59072 222.59712-497.1776 497.1776-497.1776s497.1776 222.592 497.1776 497.1776S786.59072 880.32256 512 880.32256z m213.21216-645.9392a45.568 45.568 0 0 0 0-64.45568 45.568 45.568 0 0 0-64.45568 0L512 318.68416l-148.7616-148.75648a45.568 45.568 0 0 0-64.45056 0 45.568 45.568 0 0 0 0 64.45568l148.75648 148.75648-148.75648 148.75648a45.568 45.568 0 0 0 0 64.45568 45.568 45.568 0 0 0 64.45056 0L512 447.59552l148.75648 148.75648a45.568 45.568 0 0 0 64.45568 0 45.568 45.568 0 0 0 0-64.45568l-148.75648-148.75648 148.75648-148.75648z"  horiz-adv-x="1024" />

    
    <glyph glyph-name="hexing" unicode="&#58910;" d="M896.000512-128H128.000512c-70.69184 0-128 57.30816-128 128V554.66496a38.8608 38.8608 0 0 0 5.97504 20.90496l145.92 256A127.99488 127.99488 0 0 0 262.825472 896h498.34496a128.01536 128.01536 0 0 0 110.94016-64.42496l145.92-256A38.85568 38.85568 0 0 0 1024.000512 554.67008V0c0-70.69184-57.30816-128-128-128zM85.335552 512v-512A42.66496 42.66496 0 0 1 128.000512-42.67008h768a42.67008 42.67008 0 0 1 42.67008 42.67008V512H85.335552z m30.72 85.33504h791.89504l-109.66016 192a42.6496 42.6496 0 0 1-37.12 21.33504H262.825472a42.65984 42.65984 0 0 1-37.12-21.33504l-109.64992-192z m609.27488-320.00512H298.665472a42.66496 42.66496 0 0 0-42.63424 42.7008 42.66496 42.66496 0 0 0 42.63424 42.63936h426.66496a42.67008 42.67008 0 0 0 0-85.34016z"  horiz-adv-x="1024" />

    
    <glyph glyph-name="mingcheng" unicode="&#58911;" d="M819.2-93.87008H170.66496C133.12-93.87008 102.4-63.15008 102.4-25.6V793.6c0 37.54496 30.72 68.26496 68.26496 68.26496H819.2c37.55008 0 68.27008-30.72 68.27008-68.26496v-819.2c0-37.55008-30.72-68.27008-68.27008-68.27008zM170.66496 793.6v-819.2H819.2V793.6H170.66496zM648.52992 554.66496h-307.2C320.85504 554.66496 307.2 568.32 307.2 588.8s13.65504 34.13504 34.13504 34.13504h307.2c20.48 0 34.14016-13.65504 34.14016-34.13504s-13.66528-34.13504-34.14528-34.13504z m0-204.79488h-307.2c-20.48 0-34.13504 13.64992-34.13504 34.12992s13.65504 34.13504 34.13504 34.13504h307.2c20.48 0 34.14016-13.65504 34.14016-34.13504s-13.66016-34.12992-34.14016-34.12992z m0-204.8h-307.2c-20.48 0-34.13504 13.64992-34.13504 34.12992s13.65504 34.12992 34.13504 34.12992h307.2c20.48 0 34.14016-13.64992 34.14016-34.12992s-13.66016-34.12992-34.14016-34.12992z"  horiz-adv-x="1024" />

    
    <glyph glyph-name="shuliang" unicode="&#58912;" d="M512 883.2C236.544 883.2 12.8 659.456 12.8 384s223.232-499.2 499.2-499.2 499.2 223.232 499.2 499.2S787.456 883.2 512 883.2z m0-942.08c-244.224 0-442.88 198.656-442.88 442.88S267.776 826.88 512 826.88s442.88-198.656 442.88-442.88-198.656-442.88-442.88-442.88zM743.936 415.232h-200.704V615.936c0 17.408-14.336 31.232-31.232 31.232-17.408 0-31.232-14.336-31.232-31.232v-200.704H280.064c-17.408 0-31.232-14.336-31.232-31.232 0-17.408 14.336-31.232 31.232-31.232h200.704v-200.704c0-17.408 14.336-31.23712 31.232-31.23712 17.408 0 31.232 14.34112 31.232 31.23712v200.704h200.704c17.408 0 31.23712 14.336 31.23712 31.232a31.03744 31.03744 0 0 1-31.23712 31.232z"  horiz-adv-x="1024" />

    
    <glyph glyph-name="gongyi" unicode="&#58913;" d="M627.2 579.41504l122.88-126.29504 8.53504-129.71008L587.95008 458.24l-148.48512-146.77504L599.04 159.56992H429.22496L304.64 289.28V430.93504l112.64 148.48zM914.76992 635.73504l-378.88 213.33504A47.37536 47.37536 0 0 1 512 853.33504c-8.33536 0-16.5376-2.048-23.89504-5.97504l-378.88-213.33504a46.5152 46.5152 0 0 1-23.89504-36.69504v-426.66496a45.63968 45.63968 0 0 1 23.89504-39.68l378.88-213.34016a47.36512 47.36512 0 0 1 23.89504-2.97984 56.23296 56.23296 0 0 1 23.88992 5.96992l378.88 213.32992a45.25568 45.25568 0 0 1 23.90016 36.70016V597.33504a48.2304 48.2304 0 0 1-23.90016 38.4z m-16.64-469.33504l-384-215.88992L128 167.68V597.33504l384 218.02496 386.12992-218.02496V166.4zM268.8 372.91008c2.80064-138.70592 117.28896-248.99584 256-246.62016a268.47744 268.47744 0 0 1 85.32992 14.08 14.93504 14.93504 0 0 1 7.68 4.70016 20.46976 20.46976 0 0 1 0 28.57984l-157.86496 143.36 123.30496 119.89504 152.32-138.24a22.17472 22.17472 0 0 1 20.48-5.12 24.7296 24.7296 0 0 1 15.79008 15.36 232.1408 232.1408 0 0 1 8.52992 64.41984c-2.80064 138.70592-117.28896 248.99584-256 246.61504-138.60864 1.91488-252.76928-108.43648-255.56992-247.02976z m256 204.79488c115.52256 1.66912 210.76992-90.14784 213.32992-205.65504v-17.92L597.32992 481.28a22.17472 22.17472 0 0 1-29.85984 0l-153.17504-149.32992A18.7904 18.7904 0 0 1 408.32 317.44a17.90976 17.90976 0 0 1 6.4-14.92992l148.91008-131.84-17.92-2.14016H524.8c-115.61472-1.89952-211.00032 90.05056-213.33504 205.66016 3.712 114.6624 98.62144 205.20448 213.33504 203.51488z m110.08-264.95488a39.68 39.68 0 0 0-79.36 0 39.68 39.68 0 0 0 39.7056 39.64928 39.68 39.68 0 0 0 39.6544-39.64928z"  horiz-adv-x="1024" />

    
    <glyph glyph-name="chicun" unicode="&#58914;" d="M310.68672 486.50752l-22.9376 22.9376 59.97056 59.97056c9.9328 9.9328 9.9328 26.19392 0 36.30592-9.9328 9.9328-26.1888 9.9328-36.30592 0L251.43808 545.75616 189.12256 608.07168l31.43168 31.43168c9.9328 9.9328 9.9328 26.19392 0 36.30592-9.9328 9.9328-26.1888 9.9328-36.30592 0l-31.43168-31.43168-36.48512 36.48512L218.9312 783.4624c9.5744 9.5744 26.01472 9.5744 35.584 0l176.29696-176.29696 50.75968 50.75968-176.30208 176.11776c-18.24256 18.24256-42.62912 28.35968-68.45952 28.35968s-50.21696-10.11712-68.45952-28.35968L14.99136 680.86784l244.93568-244.93568 50.75968 50.57536z m475.24352-132.9408l-50.75968-50.75968 182.44096-182.43584a25.0368 25.0368 0 0 0 7.40352-17.69984 24.99584 24.99584 0 0 0-7.40352-17.88416l-102.59968-102.59968-34.14016 34.14016 31.43168 31.43168c9.9328 9.9328 9.9328 26.1888 0 36.30592-9.9328 9.9328-26.1888 9.9328-36.31104 0l-31.43168-31.43168-62.31552 62.32064 59.97056 59.97056c9.9328 9.9328 9.9328 26.1888 0 36.30592s-26.19392 9.9328-36.30592 0l-59.97056-59.97056-31.25248 31.25248-50.75968-50.75456 250.90048-250.90048 153.35424 153.35936a96.3328 96.3328 0 0 1 28.35968 68.45952c0 25.8304-10.11712 50.21184-28.35968 68.4544l-182.25152 182.43584z m-38.48192 38.29248l247.47008 247.46496c10.65472 10.65984 16.4352 24.74496 16.4352 39.74144s-5.78048 29.0816-16.4352 39.73632L846.98112 866.7392c-2.70848 2.70848-5.78048 5.23776-8.85248 7.22432s-6.31808 3.79392-9.7536 5.05856c-6.86592 2.70848-14.08512 4.15744-21.13536 4.15744a54.2208 54.2208 0 0 1-16.0768-2.34496c-3.4304-1.08544-6.86592-2.34496-10.11712-4.15744a52.02432 52.02432 0 0 1-13.54752-10.11712L520.0384 619.09504l-50.75968-50.75968L348.9792 448.03584l-50.75968-50.57536-139.62752-139.62752c-11.20256-11.20256-23.84384-29.98272-29.98272-44.6208L17.16224-53.03808c-7.76704-18.78528-4.87936-37.57056 7.76704-50.21184 7.94624-7.95136 18.24256-12.10368 29.62432-12.10368 6.68672 0 13.54752 1.44384 20.59264 4.33664l266.25024 111.63136c14.63296 6.13888 33.41824 18.78528 44.61568 29.98272l139.62752 139.62752 15.52896 15.7184 155.52512 155.52 50.75456 50.39616z m-555.9808-214.23104l114.15552-114.16064-196.34688-82.19136 82.19136 196.352z m334.17216 93.93152l-50.75968-50.75968-115.42016-115.42528-126.08 126.08512 115.42528 115.42016 50.75968 50.75968 120.30464 120.29952 287.20128 287.2064 126.08-126.08-236.44672-236.44672-50.75456-50.75968-120.30976-120.29952z"  horiz-adv-x="1024" />

    
    <glyph glyph-name="kongbai" unicode="&#58915;" d="M512.011737 383.988263m-500.274809 0a500.274809 500.274809 0 1 1 1000.549618 0 500.274809 500.274809 0 1 1-1000.549618 0ZM540.696788 319.622951a53.966394 53.966394 0 0 0-53.966393-53.966394h-206.170874a53.966394 53.966394 0 0 0-53.966394 53.966394V630.604589a53.966394 53.966394 0 0 0 53.966394 53.966394h206.170874a53.966394 53.966394 0 0 0 53.966393-53.966394v-310.981638zM669.05183 228.520918a53.966394 53.966394 0 0 0-53.966393-53.966394H408.914563a53.966394 53.966394 0 0 0-53.966393 53.966394V539.502556a53.966394 53.966394 0 0 0 53.966393 53.966394h206.170874a53.966394 53.966394 0 0 0 53.966393-53.966394v-310.981638zM797.406873 137.418885a53.966394 53.966394 0 0 0-53.966394-53.966394h-206.170874a53.966394 53.966394 0 0 0-53.966393 53.966394V448.400523a53.966394 53.966394 0 0 0 53.966393 53.966394h206.170874a53.966394 53.966394 0 0 0 53.966394-53.966394v-310.981638z"  horiz-adv-x="1024" />

    
    <glyph glyph-name="zengjia" unicode="&#58916;" d="M43.468311 341.140885h424.46808v-424.472713a43.468311 43.468311 0 0 1 43.468311-43.463679 43.463678 43.463678 0 0 1 43.468311 43.463679v424.472713h424.463448c24.006478 0 43.468311 19.4572 43.468311 43.468311a43.468311 43.468311 0 0 1-43.468311 43.468311h-424.463448V852.536322c0 22.329453-16.849009 40.707242-38.520623 43.162555h-9.890743c-21.671615-2.455313-38.51599-20.833102-38.520623-43.162555v-424.458815H43.468311A43.468311 43.468311 0 0 1 0 384.609196a43.463678 43.463678 0 0 1 43.468311-43.468311z"  horiz-adv-x="1024" />

    
    <glyph glyph-name="waibaozhuang" unicode="&#58917;" d="M514.58559 711.676851L811.518877 542.717485v-202.239242l-102.399616-46.079827-46.069587 186.879299L404.480403 645.117101zM983.90863 638.281926a24.345509 24.345509 0 0 1 0 4.961262 24.524708 24.524708 0 0 1 0 5.41182l-3.159028 4.055024-4.510703 3.159028L523.417557 893.108491a25.256865 25.256865 0 0 1-23.454632 0L53.45452 659.478647l-4.510704-3.159028-3.159028-3.609587a24.524708 24.524708 0 0 1 0-5.411819 25.098146 25.098146 0 0 1 0-4.961262v-445.15161a24.806307 24.806307 0 0 1 4.961262-23.004074l446.958964-295.868331 5.862378-2.70335h12.625872l5.867498 2.70335 451.019109 295.868331a24.790947 24.790947 0 0 1 11.274198 20.746162V638.281926h-0.445439zM511.687681 842.59476l394.643-206.115067-100.126344-56.376108-279.182313 158.304686a25.251745 25.251745 0 0 1-24.806307 0L382.700005 670.302286a24.811427 24.811427 0 0 1 0-45.101911l248.06307-146.129372-118.614596-66.749189-394.643 224.152759L511.687681 842.59476z m270.611465-333.756188v-146.134492l-75.770595-45.101911V465.544014l75.770595 43.294558z m-101.928577 0L445.38905 648.655008l69.457659 39.239532 241.745014-135.305732-76.221154-43.750236zM89.985583 594.081132l396.445233-222.806204v-427.569597l-396.445233 262.501416V594.081132z m445.607289-650.370681v427.569597l119.97651 67.199748v-165.52386a25.267105 25.267105 0 0 1 37.882738-21.652398l126.289446 75.320037a25.256865 25.256865 0 0 1 12.175314 21.652399V537.705024l100.126345 56.376108v-387.874385l-396.450353-262.496296z"  horiz-adv-x="1024" />

    
    <glyph glyph-name="shejigao" unicode="&#58918;" d="M128.85504 154.44992L309.76 289.28l148.48-75.09504 252.59008 199.68 192.84992-174.08-29.00992-233.81504-720.21504-10.24zM368 416C305.60256 416 256 465.59744 256 528S305.60256 640 368 640 480 590.39744 480 528 430.40256 416 368 416z m0 160c-27.20256 0-48-20.80256-48-48s20.80256-48 48-48 48 20.80256 48 48-20.79744 48-48 48zM832-32h-640c-52.80256 0-96 43.20256-96 96v640c0 52.80256 43.20256 96 96 96h640c52.80256 0 96-43.20256 96-96v-640c0-52.80256-43.19744-96-96-96z m-640 768c-17.60256 0-32-14.40256-32-32v-640c0-17.60256 14.40256-32 32-32h640c17.60256 0 32 14.40256 32 32v640c0 17.60256-14.40256 32-32 32h-640zM451.2 179.2c-25.6 0-51.2 11.20256-70.4 30.40256l-38.4 40.00256a32.83456 32.83456 0 0 1-46.40256 0l-49.60256-52.80256c-12.8-12.8-32-12.8-44.8-1.60256s-12.8 32-1.60256 44.8l49.60256 52.80256c17.60256 19.2 43.20256 30.40256 68.80256 30.40256s51.2-11.20256 70.4-30.40256l38.4-40.00256c12.8-12.8 33.60256-12.8 46.40256 0l160 168.00256c17.60256 19.2 43.20256 30.40256 70.4 30.40256s51.2-11.20256 70.4-30.40256l145.60256-153.6c12.8-12.8 11.20256-33.60256-1.60256-44.8-12.8-12.8-33.60256-11.20256-44.8 1.60256l-145.60256 153.6a32.83456 32.83456 0 0 1-46.40256 0l-160-169.6C502.4 190.39744 476.8 179.2 451.2 179.2z"  horiz-adv-x="1024" />

    
    <glyph glyph-name="beizhu" unicode="&#58919;" d="M344.74496 418.13504m-52.05504 0a52.05504 52.05504 0 1 1 104.11008 0 52.05504 52.05504 0 1 1-104.11008 0ZM552.10496 418.13504m-52.05504 0a52.05504 52.05504 0 1 1 104.11008 0 52.05504 52.05504 0 1 1-104.11008 0ZM759.47008 418.13504m-52.05504 0a52.05504 52.05504 0 1 1 104.11008 0 52.05504 52.05504 0 1 1-104.11008 0ZM511.37024-64.89088c-8.92928 0-17.65888 3.47136-24.53504 10.61888l-103.71584 107.6992c-6.2976 6.58432-10.17856 15.52896-10.17856 25.38496s3.87584 18.80064 10.1888 25.3952c13.55776 14.08 35.3024 14.08 48.86528-0.01024l79.36-82.42176 79.35488 82.42176a33.87392 33.87392 0 0 0 24.59648 10.61888h241.90976c19.14368 0 34.57024 16.02048 34.57024 35.91168v574.464c0 19.69152-15.42656 35.91168-34.56 35.91168H165.85728c-18.95424 0-34.56-16.21504-34.56-35.91168v-574.46912c0-19.88096 15.60576-35.91168 34.56-35.91168h103.7056c19.14368 0 34.57024-16.02048 34.57024-35.8912 0-19.8912-15.42656-35.91168-34.56-35.91168H165.85728c-57.23136 0-103.68 48.256-103.68 107.70944V725.19168c-0.00512 59.45344 46.4384 107.71456 103.68 107.71456H857.2416c57.2416 0 103.7056-48.256 103.7056-107.71456v-574.46912c0-59.44832-46.464-107.70944-103.7056-107.70944h-227.8656l-93.48608-97.29024a34.048 34.048 0 0 0-24.6272-10.61888l0.10752 0.00512zM321.24416 402.05312c-28.6208 0-51.85536 24.12032-51.85536 53.85728 0 29.72672 23.23968 53.85728 51.85536 53.85728S373.0944 485.63712 373.0944 455.9104c0-29.73184-23.22944-53.85728-51.85024-53.85728z m207.40608 0c-28.6208 0-51.85024 24.12032-51.85024 53.85728 0 29.72672 23.22944 53.85728 51.85024 53.85728s51.85024-24.12544 51.85024-53.85728-23.2192-53.85728-51.84-53.85728h-0.01024z m207.59552 0c-28.6208 0-51.85024 24.12032-51.85024 53.85728 0 29.72672 23.22432 53.85728 51.85024 53.85728 28.6208 0 51.84512-24.12544 51.84512-53.85728s-23.40352-53.85728-51.84512-53.85728z"  horiz-adv-x="1024" />

    
    <glyph glyph-name="yinshua" unicode="&#58920;" d="M883.2256 614.44608H806.0928V726.2976c0 17.3568-21.21728 32.78336-46.2848 32.78336H335.54944c-25.06752 0-46.2848-15.42656-46.2848-32.78336v-111.85152H212.12672V726.2976c0 59.78112 55.92576 109.92128 123.4176 109.92128h424.25856c67.49696 0 123.4176-50.13504 123.4176-109.92128v-111.85152h0.00512zM844.65664 101.48352h-21.21728v77.1328h21.21728c48.21504 0 88.704 40.4992 88.704 88.70912V521.8816c0 48.21504-40.48896 88.70912-88.704 88.70912H250.69568c-48.21504 0-88.70912-40.49408-88.70912-88.70912v-254.55104c0-48.20992 40.4992-88.70912 88.70912-88.70912h23.1424v-77.1328h-23.1424c-90.63936 0-165.84704 75.20256-165.84704 165.84704V521.8816c0 90.63936 75.20768 165.84704 165.84704 165.84704h593.95584c90.63424 0 165.84704-75.20768 165.84704-165.84704v-254.55104c0-92.56448-75.20768-165.84704-165.84192-165.84704zM759.80288-89.43104H335.54944c-67.49696 0-123.4176 55.92064-123.4176 123.4176v339.4048c0 67.49696 55.92576 123.4176 123.4176 123.4176H759.808c67.49696 0 123.4176-55.92064 123.4176-123.4176v-339.4048c0-69.42208-55.92576-123.4176-123.42272-123.4176zM335.54944 419.67616c-25.06752 0-46.2848-21.21216-46.2848-46.2848v-339.39968c0-25.06752 21.21216-46.2848 46.2848-46.2848H759.808c25.06752 0 46.2848 21.21728 46.2848 46.2848v339.39968c0 25.07264-21.2224 46.2848-46.2848 46.2848H335.54944zM701.952 251.89888H393.40032c-21.21216 0-38.56896 17.36192-38.56896 38.56896 0 21.21728 17.3568 38.56896 38.56896 38.56896H701.952c21.21728 0 38.56896-17.3568 38.56896-38.56896 0-21.20704-17.3568-38.56896-38.56896-38.56896z m0-146.56H393.40032c-21.21216 0-38.56896 17.36192-38.56896 38.56896s17.3568 38.56896 38.56896 38.56896H701.952c21.21728 0 38.56896-17.36192 38.56896-38.56896s-17.3568-38.56896-38.56896-38.56896z"  horiz-adv-x="1039" />

    
    <glyph glyph-name="hezi" unicode="&#58921;" d="M72.713438 82.391237l393.947957-195.549666a132.131018 132.131018 0 0 1 58.658402-13.466845 132.154956 132.154956 0 0 1 58.654983 11.305584l393.982153 195.484691a130.222816 130.222816 0 0 1 72.675821 119.06428V569.847929a130.280951 130.280951 0 0 1-73.988992 116.437938l-393.951376 195.542827a132.240449 132.240449 0 0 1-116.034411 0l-393.947956-189.876356a131.088004 131.088004 0 0 1-51.237617-43.464601 39.36778 39.36778 0 0 1-5.666471-8.238098v-2.978573a129.617526 129.617526 0 0 1-15.775154-61.725888v-376.309057a130.253593 130.253593 0 0 1 72.682661-116.844884z m890.377986 116.872241c0.112851-16.530911-9.233235-31.663158-24.074806-39.11472l-369.907347-183.361796V356.980818h-0.030778l394.012931 187.277371v-344.994711zM505.629068 804.532835a44.06989 44.06989 0 0 0 38.533369 0l375.136094-185.088753-154.967887-73.407641-373.385199 203.315843 114.683623 55.180551z m161.075501-304.594176l-141.384772-67.327385-386.062089 195.060647 154.937109 74.734491 372.509752-202.467753z m-579.122202 56.035479l393.978734-198.114453v-381.072723l-369.907347 183.361796a43.413305 43.413305 0 0 0-24.071387 39.11472v356.71066z"  horiz-adv-x="1051" />

    
    <glyph glyph-name="suyuanma" unicode="&#58922;" d="M442.88 477.87008a14.51008 14.51008 0 0 0-14.51008-14.51008h-286.1568a14.51008 14.51008 0 0 0-14.51008 14.51008V737.6896a14.51008 14.51008 0 0 0 14.51008 14.51008h286.1568A14.51008 14.51008 0 0 0 442.88 737.6896v-259.81952zM742.79936 774.5024c-2.29888-0.30208-4.70016-0.1024-6.99904-0.1024-38.00064 0-76.00128 0.1024-114.00192-0.1024-10.99776 0-21.89824-1.39776-32.39936-5.09952-18.60096-6.5024-29.7984-19.50208-34.40128-38.4-1.69984-6.99904-2.40128-14.10048-2.40128-21.2992 0-67.2-0.1024-134.2976 0.1024-201.4976 0-13.7984 0.90112-27.60192 6.20032-40.80128 6.90176-17.1008 19.70176-27.20256 37.2992-31.69792 6.2976-1.60256 12.8-2.2016 19.3024-2.2016h217.99936c8.29952 0 16.59904 0.70144 24.80128 2.29888 24.40192 4.50048 40.40192 20.70016 44.9024 44.99968 0.39936 2.2016-0.39936 5.20192 2.89792 6.20032V718.80192c-0.39936 0.39936-0.50176 0.90112-0.50176 1.50016-1.50016 4.80256-1.69984 9.79968-3.3024 14.69952-7.10144 21.00224-21.69856 33.39776-42.79808 38.79936-6.4 1.60256-12.8 2.40128-19.50208 2.0992-1.30048-0.1024-3.00032-0.9984-3.90144 0.90112h-89.00096c-0.39424-2.60096-2.69312-2.0992-4.29568-2.29888z m98.69824-40.704c3.99872 0 8.09984-0.90112 11.89888-2.0992 6.90176-2.2016 10.7008-7.59808 10.7008-15.09888 0-74.79808 0.1024-149.60128-0.1024-224.39936 0-11.20256-8.6016-18.00192-21.09952-18.0992-38.20032-0.30208-76.29824-0.1024-114.49856-0.1024h-112.9984c-4.50048 0-8.6016 1.30048-12.6976 2.69824-8.4992 3.0976-9.6 10.50112-9.7024 17.89952-0.19968 37.49888-0.1024 74.99776-0.1024 112.50176V712.6016c0 6.5024 1.50016 12.49792 6.90176 16.9984 4.59776 3.79904 10.30144 4.3008 15.60064 4.3008 75.40224 0.09728 150.79936 0 226.0992-0.1024zM742.00064 775.99744c-39.5008-0.1024-79.0016-0.1024-118.4-0.1024-9.40032 0-18.60096-0.9984-27.6992-3.0976-11.60192-2.69824-22.09792-7.70048-29.99808-16.70144-10.5984-12.09856-14.80192-26.90048-14.80192-42.5984a36424.7552 36424.7552 0 0 1 0-208.90112c0-9.09824 0.70144-18.29888 2.80064-27.20256 2.80064-11.6992 7.59808-22.5024 16.70144-30.49984 11.6992-10.30144 25.90208-15.0016 41.4976-15.0016 74.10176-0.1024 148.3008-0.1024 222.40256 0 9.29792 0 18.69824 0.50176 27.6992 3.00032 19.00032 5.4016 33.60256 15.8976 40.00256 35.79904 1.69984 5.2992 1.80224 10.90048 3.79904 16.1024-3.2-0.9984-2.49856-3.99872-2.89792-6.20032-4.50048-24.40192-20.50048-40.4992-44.9024-44.99968a137.89696 137.89696 0 0 0-24.80128-2.29888h-217.99936c-6.5024 0-12.99968 0.59904-19.3024 2.2016-17.50016 4.50048-30.40256 14.60224-37.2992 31.69792-5.2992 13.10208-6.20032 26.99776-6.20032 40.80128-0.19968 67.2-0.1024 134.2976-0.1024 201.4976 0 7.19872 0.70144 14.30016 2.40128 21.2992 4.59776 18.89792 15.80032 31.8976 34.40128 38.4 10.50112 3.70176 21.4016 5.00224 32.39936 5.09952 38.00064 0.19968 76.00128 0.1024 114.00192 0.1024 2.29888 0 4.70016-0.19968 6.99904 0.1024 1.69984 0.19968 3.90144-0.19968 4.1984 2.40128-1.19808-2.0992-3.2-0.90112-4.89984-0.90112zM120.6016 485.69856c2.00192-12.49792 5.49888-24.40192 14.30016-34.00192 11.49952-12.6976 26.50112-18.00192 42.99776-18.0992 75.10016-0.30208 150.20032-0.30208 225.39776 0 9.40032 0 18.89792 0.9984 28.09856 3.90144 24.4992 7.70048 39.10144 27.29984 39.10144 53.09952 0 73.99936 0 147.90144 0.1024 221.9008 0 6.4-0.79872 12.60032-2.40128 18.80064a57.14944 57.14944 0 0 1-47.49824 42.30144c-4.10112 0.59904-8.20224 1.1008-12.40064 1.1008-2.00192 0-4.50048-0.59904-5.20192 2.40128H314.10176c-1.30048-2.0992-3.3024-0.90112-4.89984-0.90112-41.09824-0.1024-82.2016 0.19968-123.29984-0.19968-14.80192-0.1024-29.19936-2.60096-42.19904-10.7008-12.49792-7.79776-19.79904-19.0976-23.70048-32.9984-0.79872-2.69824-0.19968-5.69856-1.89952-8.20224v-233.00096c2.89792-0.90112 2.19648-3.50208 2.49856-5.4016zM160.1024 716.6976c0 8.09984 6.20032 14.60224 14.49984 16.30208 4.39808 0.90112 8.80128 0.9984 13.19936 0.9984h218.99776c4.3008 0 8.40192-0.79872 12.40064-2.00192 7.5008-2.40128 10.79808-6.90176 10.79808-14.60224v-225.50016c0-8.20224-3.79904-13.30176-11.60192-15.8976-3.99872-1.30048-8.09984-2.0992-12.40064-2.00192-37.20192 0.1024-74.30144 0.1024-111.49824 0.1024-37.69856 0-75.29984-0.1024-112.9984 0.1024-6.2976 0-12.60032 0.90112-17.30048 6.09792-2.69824 3.00032-4.10112 6.2976-4.10112 10.10176a85490.688 85490.688 0 0 0 0.00512 226.29888zM118.99904 488.4992c0.1024-8.89856 2.60096-17.30048 6.4-25.09824 10.39872-21.4016 28.9024-31.0016 51.59936-31.20128 74.50112-0.59904 149.00224-0.19968 223.40096-0.19968 9.29792 0 18.60096 0.79872 27.6992 3.00032 27.10016 6.70208 43.60192 26.39872 43.8016 54.4 0.50176 73.79968 0.19968 147.59936 0.19968 221.39904 0 4.89984 0 9.79968-0.90112 14.69952-3.00032 16.19968-10.7008 29.39904-24.20224 38.99904-10.99776 7.79776-23.5008 10.99776-36.89984 11.40224-2.29888 0.1024-4.89984-1.19808-6.90176 0.90112 0.70144-3.00032 3.3024-2.40128 5.20192-2.40128 4.1984 0 8.29952-0.59904 12.40064-1.1008a57.1392 57.1392 0 0 0 47.49824-42.30144c1.60256-6.20032 2.40128-12.40064 2.40128-18.80064-0.1024-73.99936 0-147.90144-0.1024-221.9008 0-25.7024-14.60224-45.30176-39.10144-53.09952-9.20064-2.89792-18.69824-3.90144-28.09856-3.90144-75.10016-0.19968-150.20032-0.30208-225.39776 0-16.50176 0.1024-31.40096 5.4016-42.99776 18.0992-8.80128 9.7024-12.29824 21.49888-14.30016 34.00192-0.30208 1.89952 0.39936 4.59776-2.60096 5.20192 1.30048-0.09728 0.90112-1.30048 0.90112-2.0992z m72.80128-475.19744c2.0992 0.30208 4.3008 0.1024 6.5024 0.1024h205.99808c8.40192 0 16.59904 0.9984 24.69888 3.0976 25.4976 6.59968 41.40032 26.90048 41.4976 53.20192 0.1024 25.29792 0 50.69824 0 76.00128v147.99872c0 32.30208-21.4016 56.20224-53.60128 59.6992-11.40224 1.19808-22.90176 1.69984-34.40128 2.00192-34.49856 0.70144-69.00224-0.50176-103.3984-1.30048-32.9984-0.79872-66.00192-0.19968-98.89792-0.70144-11.49952-0.19968-22.59968-2.69824-32.70144-8.09984-13.59872-7.19872-21.89824-18.49856-25.7024-33.39776-0.70144-2.80064-0.1024-6.5024-3.70176-8.00256v-233.99936c2.00192-5.49888 2.2016-11.40224 3.90144-17.1008 5.89824-20.70016 19.39968-33.30048 39.79776-38.90176 6.5024-1.80224 13.19936-2.29888 19.90144-2.0992 1.39776 0 3.3024 1.1008 4.39808-0.90112h2.00192c0.2048 2.29888 2.10432 2.2016 3.70688 2.40128z m-11.40224 40.59648c-12.20096 0-20.70016 6.59968-20.59776 20.50048 0.39936 73.29792 0.19968 146.60096 0.1024 220.00128 0 11.8016 6.99904 18.0992 18.29888 18.49856 74.5984 2.40128 149.09952 0.50176 223.69792 0.79872 6.4 0 13.39904 0.39936 19.59936-3.00032 5.4016-3.00032 8.4992-7.19872 8.4992-13.70112-0.1024-37.49888 0-74.99776 0-112.50176 0-37.20192-0.19968-74.30144 0.1024-111.49824 0.1024-12.09856-7.79776-17.60256-18.69824-19.3024-8.6016-1.30048-16.9984 0-25.4976 0.1024-68.5056 0.2048-137.00608 0.1024-205.50656 0.1024zM193.50016 11.8016c67.79904 0.1024 135.70048 0.1024 203.49952 0 9.40032 0 18.69824 0.19968 28.00128 2.0992 12.49792 2.49856 23.79776 7.79776 32.50176 17.1008 9.7024 10.39872 14.49984 23.3984 14.49984 37.60128 0.19968 74.30144 0.1024 148.70016 0.1024 223.0016 0 6.2976-0.39936 12.40064-2.00192 18.49856-5.2992 19.90144-17.30048 33.69984-36.70016 41.29792-13.30176 5.20192-27.29984 5.00224-41.00096 5.2992-23.10144 0.50176-46.19776 0.90112-69.2992-0.50176-19.00032-1.19808-38.20032-0.30208-57.29792-0.9984-27.60192-0.90112-55.30112-0.30208-83.00032-0.19968-6.4 0-12.6976-0.59904-19.00032-2.00192-18.40128-4.1984-32.50176-13.7984-40.6016-31.29856-2.60096-5.69856-2.80064-12.00128-5.20192-17.69984 3.70176 1.50016 3.00032 5.20192 3.70176 8.00256 3.79904 14.8992 12.20096 26.19904 25.7024 33.39776 10.19904 5.4016 21.20192 7.90016 32.70144 8.09984 32.9984 0.50176 65.89952-0.1024 98.89792 0.70144 34.49856 0.79872 68.89984 2.00192 103.3984 1.30048 11.49952-0.19968 22.99904-0.70144 34.40128-2.00192 32.19968-3.50208 53.49888-27.40224 53.60128-59.6992v-147.99872c0-25.29792 0.1024-50.69824 0-76.00128-0.19968-26.39872-16-46.60224-41.4976-53.20192-8.09984-2.0992-16.30208-3.0976-24.69888-3.0976H198.20032c-2.2016 0-4.3008 0.1024-6.5024-0.1024-1.60256-0.19968-3.50208 0-3.70176-2.40128 1.50528 1.90464 3.70176 0.80384 5.504 0.80384zM143.60064 765.10208c12.99968 8.00256 27.40224 10.5984 42.19904 10.7008 41.09824 0.39936 82.2016 0.1024 123.29984 0.19968 1.60256 0 3.59936-1.19808 4.89984 0.90112-1.69984-0.9984-3.59936-0.50176-5.4016-0.50176-44.8-0.30208-89.6 0.79872-134.4-0.59904-18.89792-0.59904-34.89792-8.09984-46.49984-23.59808-6.2976-8.40192-9.09824-18.00192-9.7024-28.29824 1.80224 2.40128 1.19808 5.4016 1.89952 8.20224 4.00384 13.89056 11.20256 25.1904 23.7056 32.99328z m696.40192 10.89536c6.59968 0.30208 13.10208-0.50176 19.50208-2.0992 21.00224-5.4016 35.70176-17.80224 42.79808-38.79936 1.60256-4.80256 1.80224-9.90208 3.3024-14.69952v0.39936c0.39936 28.09856-24.40192 53.20192-52.70016 55.30112-5.60128 0.39936-11.20256-0.50176-16.79872 0.90112 0.7936-2.0992 2.59584-1.1008 3.89632-1.00352zM181.60128 11.8016c-6.70208-0.19968-13.39904 0.30208-19.90144 2.0992-20.39808 5.60128-33.89952 18.2016-39.79776 38.90176-1.60256 5.69856-1.80224 11.60192-3.90144 17.1008 1.1008-5.2992 0.79872-10.79808 2.0992-16.1024 5.49888-22.79936 25.4976-40.6016 48.59904-41.99936 5.80096-0.39936 11.60192 0.59904 17.30048-0.79872-1.1008 1.89952-3.00032 0.896-4.39808 0.79872zM608.39936 228.79744c-12.29824-0.19968-20.39808-8.29952-20.39808-19.99872v-171.8016c0-12.29824 8.4992-20.10112 20.80256-19.90144 12.9024 0.19968 21.00224 6.90176 21.09952 19.70176 0.19968 57.40032 0.1024 114.89792 0 172.29824-0.00512 12.0064-8.40192 19.90656-21.504 19.70176z m252.99968-0.19968c-9.90208 1.80224-23.30112-4.89984-23.30112-18.2016-0.19968-29.19936 0-58.30144 0-87.5008v-86.99904c0-1.60256-0.1024-3.39968 0.39936-4.89984 3.3024-9.40032 14.40256-16.19968 23.5008-13.99808 11.40224 2.69824 17.89952 7.19872 18.00192 21.4016 0.19968 55.5008 0.1024 111.0016 0.1024 166.5024-0.1024 14.39744-4.60288 21.09952-18.70336 23.69536z m-92.6976-59.89888c-2.60096 9.40032-12.99968 16.79872-22.09792 15.09888-12.40064-2.40128-19.39968-6.59968-19.50208-20.89984-0.30208-41.09824-0.1024-82.29888-0.1024-123.40224 0-13.7984 5.69856-19.99872 17.50016-22.20032 11.10016-2.0992 24.40192 4.50048 24.4992 19.0976v128c0 1.3056 0 2.90816-0.29696 4.30592z m-27.6992 182.5024c-8.69888-1.89952-13.99808-10.19904-13.99808-19.79904v-88.40192c0-13.10208 3.99872-21.00224 18.0992-23.70048 10.30144-1.89952 24.00256 5.20192 23.90016 18.49856-0.1024 15.80032 0 31.60064 0 47.49824 0 15.29856-0.19968 30.60224 0 45.99808 0.29696 19.00544-14.60224 22.80448-28.00128 19.90656z m-119.00416-2.60096c-4.89984 3.39968-10.10176 3.3024-15.40096 3.3024-10.50112 0-18.49856-7.90016-18.49856-18.29888v-25.99936c0-9.00096-0.1024-18.00192 0-26.99776 0.1024-4.59776 1.30048-8.69888 4.89984-12.29824 5.20192-5.20192 11.20256-6.70208 18.2016-6.5024 9.90208 0.30208 18.80064 8.89856 18.80064 18.69824 0.1024 17.69984 0.19968 35.3024-0.1024 53.00224 0 6.0928-2.39616 11.29472-7.90016 15.09376z m256.30208-8.4992c-2.2016 6.20032-9.79968 11.8016-17.89952 12.00128-14.30016 0.50176-23.59808-7.90016-22.5024-22.79936 0.50176-6.99904 0.1024-13.99808 0.1024-21.00224v-25.00096c0-1.50016 0-3.00032 0.39936-4.39808 3.2-10.30144 12.9024-15.49824 23.90016-13.99808 10.99776 1.60256 17.39776 8.40192 17.60256 19.70176 0.30208 15.80032 0.1024 31.69792 0.1024 47.49824-0.00512 2.89792-0.80384 5.49376-1.70496 7.99744zM352 638.19776a18.3808 18.3808 0 0 1-15.40096 13.70112 27.13088 27.13088 0 0 1-3.99872 0.39936c-0.59904 0-1.50016-0.19968-1.69984 0.79872h-28.8c-0.39936-0.70144-1.1008-0.30208-1.60256-0.30208-13.30176 0-26.5984 0.1024-39.90016-0.1024-4.80256 0-9.4976-0.90112-13.70112-3.50208-4.10112-2.49856-6.4-6.20032-7.70048-10.7008-0.19968-0.90112 0-1.89952-0.59904-2.60096v-75.49952c0.9984-0.19968 0.70144-1.1008 0.79872-1.69984 0.70144-4.10112 1.80224-7.90016 4.59776-10.99776 3.70176-4.10112 8.6016-5.80096 13.9008-5.89824 24.29952-0.1024 48.70144-0.1024 73.00096 0 3.0976 0 6.09792 0.30208 9.09824 1.30048 7.90016 2.49856 12.6976 8.89856 12.6976 17.19808V632.20224a20.1728 20.1728 0 0 1-0.6912 5.99552z m433.50016 7.70048a18.3808 18.3808 0 0 1-15.40096 13.70112 27.13088 27.13088 0 0 1-3.99872 0.39936c-0.59904 0-1.50016-0.19968-1.69984 0.79872h-28.8c-0.39936-0.70144-1.1008-0.30208-1.60256-0.30208-13.30176 0-26.5984 0.1024-39.90016-0.1024-4.80256 0-9.4976-0.90112-13.70112-3.50208-4.10112-2.49856-6.4-6.20032-7.70048-10.7008-0.19968-0.90112 0-1.89952-0.59904-2.60096v-75.49952c0.9984-0.19968 0.70144-1.1008 0.79872-1.69984 0.70144-4.10112 1.80224-7.90016 4.59776-10.99776 3.70176-4.10112 8.6016-5.80096 13.9008-5.89824 24.29952-0.1024 48.70144-0.1024 73.00096 0 3.0976 0 6.09792 0.30208 9.09824 1.30048 7.90016 2.49856 12.6976 8.89856 12.6976 17.19808V639.8976c0.20992 2.00192-0.18944 4.10112-0.6912 6.00064z m-434.0992-426.496a18.3808 18.3808 0 0 1-15.40096 13.70112 27.13088 27.13088 0 0 1-3.99872 0.39936c-0.59904 0-1.50016-0.19968-1.69984 0.79872h-28.8c-0.39936-0.70144-1.1008-0.30208-1.60256-0.30208-13.30176 0-26.5984 0.1024-39.90016-0.1024-4.80256 0-9.4976-0.90112-13.70112-3.50208-4.10112-2.49856-6.4-6.20032-7.70048-10.7008-0.19968-0.90112 0-1.89952-0.59904-2.60096v-75.49952c0.9984-0.19968 0.70144-1.1008 0.79872-1.69984 0.70144-4.10112 1.80224-7.90016 4.59776-10.99776 3.70176-4.10112 8.6016-5.80096 13.9008-5.89824 24.29952-0.1024 48.70144-0.1024 73.00096 0 3.0976 0 6.09792 0.30208 9.09824 1.30048 7.90016 2.49856 12.6976 8.89856 12.6976 17.19808V213.4016a20.39296 20.39296 0 0 1-0.6912 6.00064z"  horiz-adv-x="1024" />

    
    <glyph glyph-name="shangchuan" unicode="&#58923;" d="M923.7 287c0 71.1-31.6 134.7-81.2 178.1-8.3 0.9-16.6 1.4-25.1 1.4-130.6-0.1-236.4-105.9-236.4-236.4 0-71.1 31.6-134.7 81.2-178.1 8.3-0.9 16.6-1.4 25.1-1.4 130.6 0 236.4 105.9 236.4 236.4zM724.8 513.4C702 622.7 604.6 704.3 490.1 704.3c-114.5 0-212.1-81.8-234.8-191.3-123-10.1-220-113.5-220-239.1 0-118.6 84.9-216.6 198.5-236.2l225.5-1.7v-109.5H528V35.3l191.4-1.5 34.4 3.8c113.5 19.6 198.3 117.6 198.3 236.1 0 128.1-100.9 233.1-227.3 239.7z m-6.6-410.5l-190.2-0.1v164l53.9-53.9 48.6 48.6-135.7 135.7-138-138.1 48.6-48.6 53.9 53.9v-161.7l-180.2-0.1-9.8 0.3C176.6 106.1 104 181.1 104 273.7c0 94.4 76.8 171.2 171.2 171.2l42-2.2 2.4 33.6c6.3 89.2 81.2 159.1 170.5 159.1 89.5 0 164.4-70 170.6-159.4l2.4-34.8 34.7 2.9c4.7 0.4 9.5 0.8 14.4 0.8 94.4 0 171.2-76.8 171.2-171.2-0.1-92.5-72.6-167.5-165.2-170.8z"  horiz-adv-x="1024" />

    
    <glyph glyph-name="peijian" unicode="&#58924;" d="M329.931235 565.906849m-231.696079 0a231.696079 231.696079 0 1 1 463.392158 0 231.696079 231.696079 0 1 1-463.392158 0ZM329.931235 655.734356v0.299845h-0.299845c-49.702275-0.161916-89.857492-40.586993-89.683582-90.283271 0-49.702275 40.281151-89.983427 89.983427-89.983427s89.983427 40.281151 89.983426 89.983427S379.63351 655.734356 329.931235 655.734356zM629.865995 594.84787h-31.777552a268.085245 268.085245 0 0 1-21.001131 77.989634l27.579726 15.891775a30.008468 30.008468 0 0 1 11.41809 42.673913 29.954496 29.954496 0 0 1-41.38458 9.217229l-27.903558-15.891775a272.169131 272.169131 0 0 1-56.982507 56.982507l15.891775 29.990478a29.996474 29.996474 0 1 1-51.885146 30.008468l-15.004234-29.990477a267.347627 267.347627 0 0 1-79.183017 22.500354v31.789546c0 16.55743-13.433047 29.990478-29.990477 29.990478s-29.990478-13.433047-29.990478-29.990478v-30.896008a268.013282 268.013282 0 0 1-77.989634-20.989137l-15.909766 27.585722a29.996474 29.996474 0 1 1-51.903136-29.990477l14.998238-29.990478a271.635407 271.635407 0 0 1-55.789125-55.789125l-27.897561 15.891775a30.002471 30.002471 0 0 1-39.219701-10.494568 29.972487 29.972487 0 0 1 9.229223-41.390577l27.597716-15.891775a267.383608 267.383608 0 0 1-20.989136-77.989634h-31.789546a29.996474 29.996474 0 0 1-29.990478-29.990478v-0.299845a29.996474 29.996474 0 0 1 29.990478-29.990477h32.695077a268.013282 268.013282 0 0 1 20.989137-77.989635l-27.597716-15.909765a30.002471 30.002471 0 0 1-10.494568-39.219701 29.984481 29.984481 0 0 1 40.485045-12.665444l27.903558 15.891774a271.317572 271.317572 0 0 1 56.982507-56.982507l-15.891775-27.903557a30.002471 30.002471 0 0 1 11.4001-42.667916 30.008468 30.008468 0 0 1 40.485046 12.683435l15.891775 27.597716a267.809388 267.809388 0 0 1 77.989634-20.989137v-31.789546c0-16.551433 13.433047-30.008468 29.984481-30.008468s29.990478 13.457035 29.990477 30.008468v31.789546a268.013282 268.013282 0 0 1 77.989634 20.989137l15.004235-28.497251a29.984481 29.984481 0 0 1 51.885145 29.996475l-15.891775 27.903558a271.455501 271.455501 0 0 1 56.982507 56.982507l27.903558-15.891775a29.96649 29.96649 0 0 1 39.20171 10.494568 29.96649 29.96649 0 0 1-9.223226 41.390577l-27.591719 15.891775a268.553003 268.553003 0 0 1 21.013124 77.989634h31.777552c16.563427 0 30.002471 13.433047 30.002472 29.990478s-13.415057 29.978484-29.990478 29.978484z m-299.93476-239.048274c-115.955984 0-209.957331 93.99535-209.957331 209.951334S213.969254 775.70826 329.931235 775.70826s209.957331-93.99535 209.95733-209.95733-94.001347-209.951334-209.95733-209.951334zM1070.77579-68.025042H42.589956a29.984481 29.984481 0 1 1 0-59.980955h1028.191831a29.996474 29.996474 0 0 1 29.978484 29.948499 30.032456 30.032456 0 0 1-29.984481 30.032456zM1070.77579 184.522245H42.589956a29.984481 29.984481 0 0 1 0-59.980955h1028.191831a30.026459 30.026459 0 0 1 29.978484 29.948499 30.014465 30.014465 0 0 1-29.984481 30.032456zM1070.77579 744.224556h-305.94365a29.984481 29.984481 0 0 1-29.972487-29.990478 29.978484 29.978484 0 0 1 29.972487-29.990478h305.94365c16.581418 0 30.008468 13.433047 30.008468 29.990478s-13.42705 29.990478-30.008468 29.990478zM1070.77579 464.379397h-305.94365a29.984481 29.984481 0 0 1-29.972487-29.98448 29.978484 29.978484 0 0 1 29.972487-29.990478h305.94365a29.990478 29.990478 0 0 1 0 59.974958z"  horiz-adv-x="1100" />

    
    <glyph glyph-name="touxiang" unicode="&#58925;" d="M512 384m-478.72 0a478.72 478.72 0 1 1 957.44 0 478.72 478.72 0 1 1-957.44 0ZM938.67008 106.67008c8.52992 17.05984 17.05984 29.85984 25.6 46.92992 4.25984 4.27008 4.25984 8.52992 4.25984 12.8 4.27008 12.8 12.8 25.6 17.07008 38.4 4.27008 4.27008 4.27008 8.52992 4.27008 17.07008 4.25984 12.8 8.52992 25.6 12.8 34.12992 0 4.27008 4.25984 12.8 4.25984 17.07008 4.27008 12.8 4.27008 25.6 8.54016 38.4 0 4.25984 4.25984 12.8 4.25984 17.05984 4.27008 17.07008 4.27008 38.4 4.27008 55.47008C1024 665.6 793.6 896 512 896S0 665.6 0 384c0-17.07008 0-38.4 4.27008-55.47008 0-4.25984 0-12.8 4.25984-17.05984 0-12.8 4.27008-25.6 4.27008-38.4 0-4.27008 4.27008-12.8 4.27008-17.07008 4.25984-12.8 8.52992-25.6 12.8-34.12992 0-4.27008 4.25984-8.54016 4.25984-17.07008 4.27008-12.8 8.54016-25.6 17.07008-38.4 0-4.27008 4.27008-8.52992 4.27008-12.8 8.52992-17.07008 17.05984-29.87008 25.6-46.92992C170.67008-34.12992 328.52992-128 507.72992-128s337.07008 93.87008 430.94016 234.67008c-4.27008 0-4.27008 0 0 0zM507.72992 652.8c102.4 0 187.74016-85.32992 187.74016-187.72992s-85.34016-187.74016-187.74016-187.74016S320 362.67008 320 465.07008 405.32992 652.8 507.72992 652.8z m-311.45984-588.8c55.45984 123.72992 174.92992 204.8 311.45984 204.8 136.54016 0 256-81.07008 311.47008-204.8-81.07008-76.8-192-128-311.47008-128-119.45984 4.27008-230.4 51.2-311.45984 128z"  horiz-adv-x="1024" />

    
    <glyph glyph-name="shangchuanchenggong" unicode="&#58926;" d="M1015.04 681.472C950.4 808.448 816 896 660.05504 896 451.11296 896 280.32 738.92352 265.49248 539.99104 111.872 497.536 0 367.36 0 213.32992 0 31.66208 155.66848-117.61152 352-128h660.04992c218.5216 0 395.95008 181.52448 395.95008 405.32992 0 215.77216-173.7984 391.47008-392.96 404.14208z m-7.85408-255.68768l-329.85088-306.15552a37.90336 37.90336 0 0 0-28.86144-12.3136 43.81696 43.81696 0 0 0-29.7472 11.3664L427.1104 297.1648a43.97056 43.97056 0 0 0 59.4944 64.74752l161.86368-150.48192 299.22304 279.09632a43.97056 43.97056 0 0 0 59.4944-64.7424z"  horiz-adv-x="1408" />

    
    <glyph glyph-name="gengduo" unicode="&#58927;" d="M186.02496 378.03008m-76.8 0a76.8 76.8 0 1 1 153.6 0 76.8 76.8 0 1 1-153.6 0ZM519.68 378.03008m-76.8 0a76.8 76.8 0 1 1 153.6 0 76.8 76.8 0 1 1-153.6 0ZM853.33504 378.03008m-76.8 0a76.8 76.8 0 1 1 153.6 0 76.8 76.8 0 1 1-153.6 0Z"  horiz-adv-x="1024" />

    
    <glyph glyph-name="shangchuan1" unicode="&#58928;" d="M724.80256 513.39776c-22.79936 109.30176-120.20224 190.8992-234.7008 190.8992s-212.10112-81.79712-234.8032-191.29856C132.3008 502.90176 35.3024 399.49824 35.3024 273.89952a238.85312 238.85312 0 0 1 198.5024-236.20096l225.50016-1.69984v-109.50144h68.70016v108.8l191.40096-1.50016 34.40128 3.79904c113.50016 19.59936 198.2976 117.60128 198.2976 236.09856-0.00512 128.10752-100.90496 233.10336-227.3024 239.70304z m-6.6048-410.496l-190.19776-0.1024v163.99872l53.89824-53.89824 48.59904 48.59904-135.69536 135.70048-137.99936-138.10176 48.59904-48.59904 53.89824 53.89824v-161.69984l-180.1984-0.1024-9.79968 0.30208c-92.6976 3.2-165.2992 78.19776-165.2992 170.79808 0 94.40256 76.8 171.20256 171.20256 171.20256l41.99936-2.2016 2.40128 33.60256c6.2976 89.20064 81.19808 159.09888 170.50112 159.09888 89.4976 0 164.39808-70.00064 170.5984-159.40096l2.40128-34.80064 34.69824 2.89792c4.70016 0.39936 9.4976 0.79872 14.40256 0.79872 94.40256 0 171.20256-76.8 171.20256-171.20256-0.10752-92.48768-72.61184-167.49056-165.21216-170.78784z"  horiz-adv-x="1024" />

    
    <glyph glyph-name="xiazai" unicode="&#58929;" d="M548.57216 12.00128V457.14432H475.42784v-445.14304l-102.13888 102.13888-51.71712-51.712L512-128l190.42816 190.42816-51.72224 51.712-102.13376-102.13888zM802.18112 639.21664C784.50176 783.85664 661.43232 896 512 896S239.49824 783.85664 221.824 639.21664C98.00192 630.99904 0 528.21504 0 402.28352c0-131.28704 106.42944-237.71648 237.71648-237.71648h128v73.14432h-128c-90.752 0-164.57216 73.82016-164.57216 164.57216 0 86.21568 67.4304 158.24896 153.53856 163.92704l60.3904 4.03968 7.35744 60.10368C307.85536 740.10624 401.3568 822.85568 512 822.85568c110.63808 0 204.13952-82.74944 217.56928-192.50176l7.36256-60.1088 60.3904-4.03456c86.10816-5.67808 153.53856-77.71648 153.53856-163.93216 0-90.752-73.82528-164.57216-164.57728-164.57216h-128v-73.14432h128c131.28704 0 237.71648 106.42944 237.71648 237.71648 0 125.93664-98.00192 228.72064-221.81888 236.93824z"  horiz-adv-x="1024" />

    
    <glyph glyph-name="shanchu" unicode="&#58930;" d="M412.00128 151.99744c-19.79904 0-35.99872 16.19968-35.99872 35.99872V396.00128c0 19.79904 16.19968 35.99872 35.99872 35.99872s35.99872-16.19968 35.99872-35.99872v-208c0-19.79904-16.19968-36.00384-35.99872-36.00384z m199.99744 0c-19.79904 0-35.99872 16.19968-35.99872 35.99872V396.00128c0 19.79904 16.19968 35.99872 35.99872 35.99872s35.99872-16.19968 35.99872-35.99872v-208c0.00512-19.79904-16.19968-36.00384-35.99872-36.00384zM923.8016 647.99744h-187.8016V729.99936c0 56.20224-45.7984 102.00064-102.00064 102.00064H390.00064c-56.20224 0-102.00064-45.7984-102.00064-102.00064v-82.00192H100.1984c-19.90144 0-36.1984-16.19968-36.1984-35.99872s16.30208-35.99872 36.1984-35.99872H192v-518.00064c0-16.39936 3.2-32.39936 9.6-47.49824 6.09792-14.49984 14.8992-27.60192 26.10176-38.79936s24.20224-19.99872 38.79936-26.10176a121.07776 121.07776 0 0 1 47.49824-9.6h396.00128c16.39936 0 32.39936 3.2 47.49824 9.6 14.49984 6.09792 27.60192 14.8992 38.79936 26.10176s19.99872 24.20224 26.10176 38.79936a121.07776 121.07776 0 0 1 9.6 47.49824V576h91.8016c19.90144 0 36.1984 16.19968 36.1984 35.99872s-16.30208 35.99872-36.1984 35.99872zM360.00256 729.99936a29.95712 29.95712 0 0 0 29.99808 29.99808h243.99872a29.95712 29.95712 0 0 0 29.99808-29.99808v-82.00192H360.00256V729.99936z m400-672c0-27.60192-22.4-50.00192-50.00192-50.00192H313.99936c-27.60192 0-50.00192 22.4-50.00192 50.00192V576h496v-518.00064z"  horiz-adv-x="1024" />

    
    <glyph glyph-name="tupian" unicode="&#58931;" d="M891.9 60.6H851h16.2c13.8 0.8 24.7 12.2 24.7 26.2v-26.2z m-0.2 570.6v-40.9 16.2c-0.8 13.8-12.2 24.7-26.2 24.7h26.2z m-759.4 0h40.9H157c-13.8-0.8-24.7-12.2-24.7-26.2v26.2zM724.3 525.9a40.9 40.9 0 1 1 81.8 0 40.9 40.9 0 1 1-81.8 0zM973.5 41.6V652.9c-3.7 32.8-30.7 58.5-64.1 60.2H112.1c-34.2-3.2-61.1-31.8-61.6-66.8v-627.7c0-0.4 0-0.8 0.1-1.2v-0.6c0-0.5 0.1-1.1 0.1-1.6v-0.1c0.8-6.7 3.2-12.9 6.8-18.2v-0.1c0.3-0.5 0.7-1 1.1-1.5 0.1-0.2 0.3-0.4 0.4-0.5 0.3-0.3 0.5-0.7 0.8-1 0.2-0.2 0.4-0.5 0.6-0.7 0.2-0.3 0.4-0.5 0.7-0.8 0.2-0.2 0.4-0.5 0.7-0.7 0.2-0.3 0.5-0.5 0.7-0.8l0.6-0.6c0.3-0.3 0.6-0.6 0.9-0.8l0.4-0.4c0.4-0.3 0.8-0.7 1.2-1 0.1-0.1 0.2-0.1 0.3-0.2 0.5-0.4 1-0.7 1.5-1.1 3.8-2.8 8.2-4.9 12.9-6.2 0.1 0 0.1 0 0.2-0.1 0.5-0.1 1.1-0.3 1.6-0.4 0.2 0 0.3-0.1 0.5-0.1 0.5-0.1 0.9-0.2 1.4-0.3 0.2 0 0.5-0.1 0.7-0.1 0.4-0.1 0.8-0.1 1.2-0.2 0.3 0 0.6-0.1 0.9-0.1 0.3 0 0.7-0.1 1-0.1 0.4 0 0.7-0.1 1.1-0.1h3.9c0.4 0 0.7 0 1.1 0.1 0.2 0 0.5 0 0.7 0.1 0.5 0 0.9 0.1 1.4 0.1h0.3c5.3 0.6 10.2 2.3 14.7 4.7 0.1 0 0.2 0.1 0.3 0.2 0.5 0.3 0.9 0.5 1.4 0.8 0.4 0.3 0.8 0.5 1.2 0.8 0.1 0.1 0.2 0.2 0.4 0.2 3.1 2.1 6 4.7 8.5 7.7 0.1 0.1 0.1 0.2 0.2 0.3 0.3 0.4 0.6 0.7 0.9 1.1 0.1 0.2 0.3 0.4 0.4 0.6l0.6 0.9 0.6 0.9c0.1 0.2 0.3 0.5 0.4 0.7 0.2 0.4 0.5 0.8 0.7 1.1 0.1 0.1 0.1 0.2 0.2 0.3l233.7 404.8 131.7-228.1c6.4-11 17.1-18 28.7-19.9 17.1-4 35.6 3.4 44.8 19.4l77.8 134.8 82.4-142.8c11.3-19.6 36.4-26.3 55.9-15 19.6 11.3 26.3 36.4 15 55.9L684.4 403.9c-2.6 10.4-9.2 19.9-19.3 25.7-19.6 11.3-44.6 4.6-55.9-15l-79.9-138.4-130.8 226.4c-3.4 7.9-9.2 14.8-17.2 19.4-19.6 11.3-44.6 4.6-55.9-15l-193-334.2V631.2h759.1v-570.3H257.3c-22.6 0-41-18.3-41-41s18.3-41 41-41h654.9c32.8 3.3 58.8 29.7 61.3 62.7z"  horiz-adv-x="1024" />

    
    <glyph glyph-name="wancheng" unicode="&#58932;" d="M467.168 223.856a37.008 37.008 0 0 0-25.12 9.6L280.24 384.176a37.12 37.12 0 1 0 50.24 54.672l136.688-127.072 252.672 235.68a37.12 37.12 0 1 0 50.24-54.672L491.536 234.256a32 32 0 0 0-24.368-10.4zM512-86.16a484.4 484.4 0 0 0-191.856 39.824 36.32 36.32 0 1 0 28.96 66.608A409.248 409.248 0 1 1 176.08 163.616a36.448 36.448 0 0 0-60.096-41.264A480.112 480.112 0 1 0 512-86.16z"  horiz-adv-x="1024" />

    


  </font>
</defs>
</svg>
